<svg width="41" height="41" viewBox="0 0 41 41" fill="none" xmlns="http://www.w3.org/2000/svg">
<g filter="url(#filter0_d)">
<path d="M36.4169 18.7002C36.2973 17.6021 35.3103 16.8089 34.2122 16.9284C33.1141 17.0479 32.3208 18.035 32.4404 19.1331L36.4169 18.7002ZM22.4849 8.56405C23.5741 8.74788 24.6061 8.01396 24.7899 6.9248C24.9737 5.83563 24.2398 4.80367 23.1507 4.61983L22.4849 8.56405ZM14.7024 18.6924C14.008 17.8334 12.7487 17.6999 11.8897 18.3942C11.0306 19.0886 10.8971 20.3478 11.5915 21.2069L14.7024 18.6924ZM17.5972 25.4556L16.0418 26.7128C16.3901 27.1437 16.9015 27.4108 17.4541 27.4504C18.0068 27.4901 18.5511 27.2987 18.9573 26.9219L17.5972 25.4556ZM33.7189 12.8835C34.5145 12.1172 34.5381 10.8511 33.7718 10.0555C33.0055 9.26002 31.7394 9.23634 30.9439 10.0026L33.7189 12.8835ZM32.4404 19.1331C33.1598 25.742 28.3854 31.6828 21.7765 32.4022L22.2093 36.3787C31.0144 35.4203 37.3754 27.5053 36.4169 18.7002L32.4404 19.1331ZM21.7765 32.4022C15.1675 33.1217 9.22674 28.3473 8.50732 21.7383L4.53081 22.1712C5.48929 30.9763 13.4042 37.3372 22.2093 36.3787L21.7765 32.4022ZM8.50732 21.7383C7.78789 15.1294 12.5623 9.18862 19.1712 8.46919L18.7383 4.49268C9.93325 5.45117 3.57232 13.3661 4.53081 22.1712L8.50732 21.7383ZM19.1712 8.46919C20.3058 8.34568 21.4176 8.38389 22.4849 8.56405L23.1507 4.61983C21.7239 4.37902 20.2425 4.32895 18.7383 4.49268L19.1712 8.46919ZM11.5915 21.2069L16.0418 26.7128L19.1527 24.1983L14.7024 18.6924L11.5915 21.2069ZM18.9573 26.9219C21.4957 24.5675 25.189 21.055 28.2409 18.1377C29.7683 16.6777 31.1376 15.3643 32.1251 14.416C32.6188 13.9418 33.0171 13.5588 33.2921 13.2943C33.4296 13.162 33.5362 13.0594 33.6085 12.9898C33.6447 12.955 33.6722 12.9284 33.6908 12.9106C33.7001 12.9016 33.7071 12.8949 33.7118 12.8904C33.7141 12.8881 33.7159 12.8864 33.7171 12.8852C33.7177 12.8846 33.7182 12.8842 33.7185 12.8839C33.7186 12.8838 33.7187 12.8837 33.7188 12.8836C33.7189 12.8835 33.7189 12.8835 32.3314 11.4431C30.9439 10.0026 30.9439 10.0027 30.9438 10.0027C30.9437 10.0028 30.9436 10.0029 30.9435 10.003C30.9432 10.0033 30.9428 10.0037 30.9422 10.0043C30.941 10.0054 30.9393 10.0071 30.937 10.0093C30.9323 10.0138 30.9254 10.0205 30.9162 10.0293C30.8978 10.047 30.8704 10.0734 30.8344 10.1081C30.7624 10.1774 30.6561 10.2797 30.519 10.4116C30.2447 10.6754 29.8472 11.0577 29.3543 11.531C28.3685 12.4778 27.0016 13.7889 25.477 15.2462C22.4249 18.1637 18.7511 21.6575 16.2371 23.9892L18.9573 26.9219Z" fill="#369946"/>
</g>
<defs>
<filter id="filter0_d" x="0.795288" y="0.757202" width="39.357" height="39.357" filterUnits="userSpaceOnUse" color-interpolation-filters="sRGB">
<feFlood flood-opacity="0" result="BackgroundImageFix"/>
<feColorMatrix in="SourceAlpha" type="matrix" values="0 0 0 0 0 0 0 0 0 0 0 0 0 0 0 0 0 0 127 0"/>
<feOffset/>
<feGaussianBlur stdDeviation="1"/>
<feColorMatrix type="matrix" values="0 0 0 0 0 0 0 0 0 0 0 0 0 0 0 0 0 0 0.2 0"/>
<feBlend mode="normal" in2="BackgroundImageFix" result="effect1_dropShadow"/>
<feBlend mode="normal" in="SourceGraphic" in2="effect1_dropShadow" result="shape"/>
</filter>
</defs>
</svg>
