<svg width="400" height="94" viewBox="0 0 400 94" fill="none" xmlns="http://www.w3.org/2000/svg">
<g clip-path="url(#clip0)">
<path d="M372.1 80.5L400 77.4C400 77.4 380 44.1 301.6 44.8C301 45.4 352 49.6 372.1 80.5Z" fill="#0C0D0D"/>
<path d="M195.9 44.2C195.9 44.2 258.5 37.2 321.5 93.6L368.4 84C368.4 84.1 329 29.4 195.9 44.2Z" fill="#0C0D0D"/>
<path d="M377.5 37H367.6L359.6 15.7H359.4L353 37H343L353.3 2.90002H363.3L371.3 24.1H371.5L377.9 2.90002H387.8L377.5 37Z" fill="black"/>
<path d="M317.5 2.30005H330.7L338.8 36.6001H327.5L326.1 30.5001H305.5L300.7 36.6001H289.3L317.5 2.30005ZM311.5 23.1001H324.5L321.7 10.2L311.5 23.1001Z" fill="black"/>
<path d="M248.4 14.3C251.4 4.30002 257.5 1.90002 266.7 1.90002H283C292.2 1.90002 296.9 4.30002 293.9 14.3L290.9 24.5C287.9 34.5 281.8 36.9 272.6 36.9H256.3C247.1 36.9 242.4 34.5 245.4 24.5L248.4 14.3ZM256.8 21.3C255.3 26.3 255.8 28.2 260.6 28.2H273.6C278.4 28.2 280 26.3 281.4 21.3L282.5 17.6C283.8 13.3 283.5 10.7 278.2 10.7H266.3C260.9 10.7 259.2 13.3 257.9 17.6L256.8 21.3Z" fill="black"/>
<path d="M214.7 2.30005H224.9L217.4 27.8H240.3L237.7 36.6001H204.7L214.7 2.30005Z" fill="black"/>
<path d="M159.5 14.3C162.5 4.30002 168.6 1.90002 177.8 1.90002H194.1C203.3 1.90002 208 4.30002 205 14.3L202 24.5C199 34.5 192.9 36.9 183.7 36.9H167.4C158.2 36.9 153.5 34.5 156.5 24.5L159.5 14.3ZM167.9 21.3C166.4 26.3 166.9 28.2 171.7 28.2H184.7C189.5 28.2 191.1 26.3 192.5 21.3L193.6 17.6C194.9 13.3 194.6 10.7 189.3 10.7H177.4C172 10.7 170.3 13.3 169 17.6L167.9 21.3Z" fill="#369946"/>
<path d="M120.6 2.30005H159.4L156.9 10.8H142.6L135 36.6001H124.8L132.4 10.8H118.1L120.6 2.30005Z" fill="#369946"/>
<path d="M67.8 14.3C70.8 4.30002 76.9 1.90002 86.1 1.90002H102.4C111.6 1.90002 116.3 4.30002 113.3 14.3L110.3 24.5C107.3 34.5 101.2 36.9 92 36.9H75.7C66.5 36.9 61.8 34.5 64.8 24.5L67.8 14.3ZM76.2 21.3C74.7 26.3 75.2 28.2 80 28.2H93C97.8 28.2 99.4 26.3 100.8 21.3L101.9 17.6C103.2 13.3 102.9 10.7 97.6 10.7H85.7C80.3 10.7 78.6 13.3 77.3 17.6L76.2 21.3Z" fill="#369946"/>
<path d="M11 2.30005H26.6L31.6 24.4001L49.6 2.30005H65.2L55.1 36.6001H45.2L52.5 12.0001H52.4L31.7 36.6001H24.1L18.1 12.0001H18L10.7 36.6001H0.800003L11 2.30005Z" fill="#369946"/>
</g>
<defs>
<clipPath id="clip0">
<path d="M0 0H400V93.9H0V0Z" fill="white"/>
</clipPath>
</defs>
</svg>
